<?xml version="1.0" encoding="iso-8859-1"?>
<!-- Uploaded to: SVG Repo, www.svgrepo.com, Generator: SVG Repo Mixer Tools -->
<!DOCTYPE svg PUBLIC "-//W3C//DTD SVG 1.1//EN" "http://www.w3.org/Graphics/SVG/1.1/DTD/svg11.dtd">
<svg fill="#000000" version="1.1" id="Capa_1" xmlns="http://www.w3.org/2000/svg" xmlns:xlink="http://www.w3.org/1999/xlink" 
	 width="800px" height="800px" viewBox="0 0 30.181 30.181"
	 xml:space="preserve">
<g>
	<g id="Layer_1_copy_3_">
		<path d="M14.98,8.962c0,0.866,0,1.803,0,2.709c0.09,0,2.292,0.011,2.292,0.011c0.74,0.114,1.354,0.606,1.535,1.39
			c0.244,1.061-0.037,2.316-1.369,2.747c-0.203,0.064-0.418,0.11-0.632,0.117c-0.908,0.026-1.818,0.04-2.729,0.051
			c-0.63,0.008-1.261,0.002-1.906,0.002c0-3.491,0-6.967,0-10.477l4.585-0.001c0.632,0,1.271,0.698,1.271,1.444
			c0.078,1.759-0.924,2.01-1.6,2.01L14.98,8.962z M8.989,0c-0.957,0-1.897,0-2.83,0c0,0.94,0,1.864,0,2.782c0.951,0,1.886,0,2.83,0
			C8.989,1.853,8.989,0.936,8.989,0z M24.069,0c-3.979,0-7.938,0-11.904,0c0,0.936,0,1.854,0,2.795c0.1,0,0.186-0.001,0.273,0
			l4.594,0.002c0.513,0,1.143,0.135,1.709,0.425c1.453,0.744,2.445,2.023,2.477,3.583c0.007,0.389-0.036,0.783-0.1,1.168
			c-0.102,0.628-0.316,1.181-0.799,1.628c-0.188,0.175-0.4,0.357-0.619,0.529c0.188,0.096,0.354,0.188,0.523,0.267
			c0.434,0.2,0.825,0.5,1.114,0.875c0.817,1.064,0.935,2.266,0.729,3.532c-0.113,0.693-0.41,1.341-0.847,1.913
			c-0.528,0.693-1.18,1.211-2.008,1.51c-0.89,0.321-1.817,0.403-2.742,0.418c-2.401,0.034-4.802,0.01-7.203,0.01
			c-0.086,0-0.169,0-0.282,0c0-4.398,0-8.768,0-13.127c-0.962,0-1.895,0-2.834,0c0,5.237,0,10.459,0,15.681
			c5.985,0,11.953,0,17.916,0C24.069,14.126,24.069,7.066,24.069,0z M22.489,22.732c-0.053,0-0.135,0.034-0.154,0.075
			c-0.198,0.421-0.387,0.847-0.578,1.269c-0.271,0.595-0.549,1.185-0.838,1.81c-0.062-0.121-0.109-0.202-0.15-0.285
			c-0.441-0.916-0.884-1.833-1.33-2.745c-0.023-0.055-0.098-0.117-0.146-0.117c-0.583-0.008-1.163-0.006-1.777-0.006
			c0.049,0.094,0.074,0.153,0.108,0.215c0.396,0.719,0.792,1.438,1.19,2.158c0.269,0.479,0.519,0.973,0.813,1.434
			c0.354,0.552,0.532,1.123,0.478,1.785c-0.048,0.543-0.01,1.092-0.01,1.638c0,0.069,0.008,0.137,0.012,0.208
			c0.523,0,1.032,0,1.558,0c0-0.84-0.011-1.66,0.005-2.48c0.005-0.188,0.061-0.388,0.146-0.553c0.332-0.632,0.688-1.252,1.031-1.876
			c0.312-0.563,0.628-1.125,0.938-1.69c0.146-0.261,0.275-0.528,0.435-0.836C23.598,22.729,23.045,22.727,22.489,22.732z
			 M18.284,29.908c0.029,0.078,0.041,0.164,0.066,0.272c-0.564,0-1.099,0.002-1.637-0.005c-0.045,0-0.111-0.059-0.129-0.104
			c-0.157-0.478-0.307-0.957-0.465-1.459c-0.687,0-1.389,0-2.092,0c-0.587,0-0.587,0-0.776,0.574
			c-0.093,0.279-0.181,0.562-0.287,0.834c-0.027,0.066-0.12,0.15-0.183,0.151c-0.497,0.013-0.996,0.007-1.541,0.007
			c0.079-0.246,0.143-0.47,0.222-0.689c0.341-0.943,0.688-1.887,1.03-2.832c0.463-1.271,0.919-2.545,1.384-3.812
			c0.021-0.052,0.108-0.111,0.168-0.111c0.512-0.011,1.027-0.013,1.54,0.002c0.066,0.002,0.169,0.094,0.193,0.166
			c0.463,1.287,0.914,2.578,1.374,3.866C17.528,27.818,17.909,28.863,18.284,29.908z M15.699,27.273
			c-0.298-0.932-0.587-1.841-0.895-2.803c-0.323,0.971-0.626,1.883-0.934,2.803C14.486,27.273,15.076,27.273,15.699,27.273z
			 M11.506,26.09c-0.332,0.771-0.879,1.277-1.746,1.335c-0.626,0.042-1.258,0.037-1.889,0.052c-0.092,0.002-0.188,0-0.307,0
			c0,0.905,0,1.795,0,2.694c-0.545,0-1.066,0-1.602,0c0-2.472,0-4.94,0-7.44c1.172,0,2.326-0.021,3.48,0.008
			c0.585,0.017,1.152,0.149,1.602,0.593c0.318,0.315,0.508,0.698,0.592,1.129C11.742,25.009,11.734,25.559,11.506,26.09z
			 M10.096,25.15c0.091-0.48-0.271-1.004-0.752-1.035c-0.58-0.037-1.163-0.008-1.769-0.008c0,0.659,0,1.342,0,2.041
			c0.077,0,0.141,0,0.201,0c0.477,0,0.951,0.021,1.426-0.009c0.264-0.017,0.551-0.099,0.688-0.362
			C9.992,25.584,10.056,25.363,10.096,25.15z"/>
	</g>
</g>
</svg>