<?xml version="1.0" encoding="iso-8859-1"?>
<!-- Uploaded to: SVG Repo, www.svgrepo.com, Generator: SVG Repo Mixer Tools -->
<!DOCTYPE svg PUBLIC "-//W3C//DTD SVG 1.1//EN" "http://www.w3.org/Graphics/SVG/1.1/DTD/svg11.dtd">
<svg fill="#000000" height="800px" width="800px" version="1.1" id="Capa_1" xmlns="http://www.w3.org/2000/svg" xmlns:xlink="http://www.w3.org/1999/xlink" 
	 viewBox="0 0 503.781 503.781" xml:space="preserve">
<g>
	<path d="M434.444,168.53v-10.189c0-17.928-14.585-32.513-32.513-32.513H97.591c-17.928,0-32.513,14.585-32.513,32.513v11.087
		C27.392,178.392,0,212.333,0,251.89c0,39.559,27.392,73.498,65.078,82.462v11.088c0,17.928,14.585,32.513,32.513,32.513h304.341
		c17.928,0,32.513-14.585,32.513-32.513v-10.189c39.591-7.311,69.336-42.189,69.336-83.36
		C503.781,210.719,474.035,175.842,434.444,168.53z M423.254,315.519c-5.519,0.363-9.81,4.946-9.81,10.478v19.443
		c0,6.348-5.165,11.513-11.513,11.513h-36.346v-11.816c0-6.251-4.701-11.319-10.5-11.319s-10.5,5.068-10.5,11.319v11.816h-185.39
		v-11.816c0-6.251-4.701-11.319-10.5-11.319c-5.799,0-10.5,5.068-10.5,11.319v11.816H97.591c-6.348,0-11.513-5.165-11.513-11.513
		v-19.85c0-5.3-3.95-9.77-9.211-10.421C45.018,311.228,21,284.024,21,251.89s24.018-59.338,55.868-63.28
		c5.26-0.651,9.21-5.121,9.21-10.421v-19.849c0-6.348,5.164-11.513,11.513-11.513h40.605v11.817c0,6.251,4.701,11.318,10.5,11.318
		c5.799,0,10.5-5.067,10.5-11.318v-11.817h185.39v11.817c0,6.251,4.701,11.318,10.5,11.318s10.5-5.067,10.5-11.318v-11.817h36.346
		c6.348,0,11.513,5.165,11.513,11.513v19.443c0,5.531,4.29,10.113,9.81,10.477c33.38,2.199,59.527,30.148,59.527,63.629
		C482.781,285.372,456.634,313.321,423.254,315.519z"/>
	<path d="M148.696,174.276c-5.799,0-10.5,5.067-10.5,11.318v12.936c0,6.251,4.701,11.318,10.5,11.318
		c5.799,0,10.5-5.067,10.5-11.318v-12.936C159.196,179.343,154.495,174.276,148.696,174.276z"/>
	<path d="M148.696,214.161c-5.799,0-10.5,5.068-10.5,11.319v12.936c0,6.251,4.701,11.319,10.5,11.319
		c5.799,0,10.5-5.068,10.5-11.319V225.48C159.196,219.229,154.495,214.161,148.696,214.161z"/>
	<path d="M148.696,254.047c-5.799,0-10.5,5.067-10.5,11.319v12.935c0,6.251,4.701,11.318,10.5,11.318
		c5.799,0,10.5-5.067,10.5-11.318v-12.935C159.196,259.114,154.495,254.047,148.696,254.047z"/>
	<path d="M148.696,293.932c-5.799,0-10.5,5.067-10.5,11.318v12.935c0,6.251,4.701,11.319,10.5,11.319
		c5.799,0,10.5-5.068,10.5-11.319v-12.935C159.196,299,154.495,293.932,148.696,293.932z"/>
	<path d="M355.085,174.276c-5.799,0-10.5,5.067-10.5,11.318v12.936c0,6.251,4.701,11.318,10.5,11.318s10.5-5.067,10.5-11.318
		v-12.936C365.585,179.343,360.884,174.276,355.085,174.276z"/>
	<path d="M355.085,254.047c-5.799,0-10.5,5.067-10.5,11.319v12.935c0,6.251,4.701,11.318,10.5,11.318s10.5-5.067,10.5-11.318
		v-12.935C365.585,259.114,360.884,254.047,355.085,254.047z"/>
	<path d="M355.085,214.161c-5.799,0-10.5,5.068-10.5,11.319v12.936c0,6.251,4.701,11.319,10.5,11.319s10.5-5.068,10.5-11.319V225.48
		C365.585,219.229,360.884,214.161,355.085,214.161z"/>
	<path d="M355.085,293.932c-5.799,0-10.5,5.067-10.5,11.318v12.935c0,6.251,4.701,11.319,10.5,11.319s10.5-5.068,10.5-11.319
		v-12.935C365.585,299,360.884,293.932,355.085,293.932z"/>
	<path d="M307.125,224.925h-24.077c-3.309,0-7.722-3.205-8.744-6.351l-7.441-22.901c-3.774-11.614-11.333-12.868-14.407-12.868
		c-3.075,0-10.634,1.254-14.408,12.868l-7.441,22.9c-1.022,3.146-5.435,6.352-8.744,6.352h-24.076
		c-12.212,0-15.741,6.802-16.691,9.727c-0.95,2.924-2.093,10.501,7.786,17.679l19.479,14.152c2.676,1.944,4.362,7.132,3.34,10.277
		l-7.441,22.9c-2.13,6.555-1.694,11.964,1.294,16.078c2.419,3.33,6.228,5.24,10.45,5.239c3.726,0,7.51-1.432,11.568-4.38
		l19.478-14.152c1.262-0.917,3.282-1.464,5.404-1.464c2.122,0,4.142,0.547,5.403,1.463l19.481,14.154
		c4.057,2.947,7.839,4.379,11.565,4.379c0.001,0,0.002,0,0.002,0c4.222,0,8.031-1.911,10.449-5.24
		c2.988-4.114,3.423-9.523,1.294-16.077l-7.44-22.898c-1.022-3.147,0.663-8.334,3.34-10.279l19.478-14.151
		c9.88-7.178,8.737-14.755,7.787-17.679C322.866,231.726,319.337,224.925,307.125,224.925z M284.208,249.492
		c-10.118,7.351-14.833,21.863-10.969,33.758l1.876,5.772l-4.911-3.568c-4.859-3.529-11.161-5.474-17.747-5.474
		c-6.586,0-12.888,1.944-17.748,5.475l-4.91,3.567l1.876-5.773c3.864-11.894-0.852-26.406-10.969-33.757l-4.911-3.567h6.069
		c12.506,0,24.852-8.969,28.716-20.861l1.876-5.775l1.876,5.775c3.864,11.893,16.209,20.861,28.716,20.861h6.069L284.208,249.492z"
		/>
</g>
</svg>