<?xml version="1.0" encoding="iso-8859-1"?>
<!-- Uploaded to: SVG Repo, www.svgrepo.com, Generator: SVG Repo Mixer Tools -->
<svg fill="#000000" height="800px" width="800px" version="1.1" id="Layer_1" xmlns="http://www.w3.org/2000/svg" xmlns:xlink="http://www.w3.org/1999/xlink" 
	 viewBox="0 0 512 512" xml:space="preserve">
<g>
	<g>
		<path d="M470.326,71.442H136.93c-22.979,0-41.674,18.695-41.674,41.674v41.674H41.674C18.695,154.791,0,173.486,0,196.465v202.419
			c0,22.979,18.695,41.674,41.674,41.674H375.07c22.979,0,41.674-18.695,41.674-41.674v-41.674h53.581
			c22.979,0,41.674-18.695,41.674-41.674V113.116C512,90.137,493.304,71.442,470.326,71.442z M381.023,398.884
			c0,3.283-2.672,5.953-5.953,5.953H41.674c-3.283,0-5.953-2.671-5.953-5.953v-136.93h345.302V398.884z M381.023,226.233H35.721
			v-29.767c0-3.283,2.671-5.953,5.953-5.953H375.07c3.283,0,5.953,2.671,5.953,5.953V226.233z M476.279,315.535
			c0,3.283-2.671,5.953-5.953,5.953h-53.581V196.465c0-22.979-18.695-41.674-41.674-41.674H130.977v-41.674
			c0-3.283,2.671-5.953,5.953-5.953h333.395c3.283,0,5.953,2.671,5.953,5.953V315.535z"/>
	</g>
</g>
<g>
	<g>
		<path d="M95.255,321.488c-13.131,0-23.814,10.683-23.814,23.814s10.683,23.814,23.814,23.814
			c13.131,0,23.814-10.683,23.814-23.814C119.069,332.17,108.386,321.488,95.255,321.488z"/>
	</g>
</g>
<g>
	<g>
		<path d="M142.883,321.488c-13.131,0-23.814,10.683-23.814,23.814s10.683,23.814,23.814,23.814
			c13.131,0,23.814-10.683,23.814-23.814C166.696,332.17,156.014,321.488,142.883,321.488z"/>
	</g>
</g>
</svg>